<?xml version="1.0" encoding="UTF-8" standalone="no"?>
<!-- Created with Inkscape (http://www.inkscape.org/) -->

<svg
   width="239.73634mm"
   height="214.64368mm"
   viewBox="0 0 239.73634 214.64368"
   version="1.1"
   id="svg1"
   xmlns:inkscape="http://www.inkscape.org/namespaces/inkscape"
   xmlns:sodipodi="http://sodipodi.sourceforge.net/DTD/sodipodi-0.dtd"
   xmlns="http://www.w3.org/2000/svg"
   xmlns:svg="http://www.w3.org/2000/svg">
  <sodipodi:namedview
     id="namedview1"
     pagecolor="#505050"
     bordercolor="#eeeeee"
     borderopacity="1"
     inkscape:showpageshadow="0"
     inkscape:pageopacity="0"
     inkscape:pagecheckerboard="0"
     inkscape:deskcolor="#505050"
     inkscape:document-units="mm" />
  <defs
     id="defs1" />
  <g
     inkscape:label="Ebene 1"
     inkscape:groupmode="layer"
     id="layer1"
     transform="translate(-5.2721421,-40.416808)">
    <path
       id="path4-0"
       style="color:#000000;fill:#e30000;-inkscape-stroke:none"
       d="m 13.362138,40.416811 c -0.58259,4.5e-4 -1.16408,0.04289 -1.77767,0.143144 -1.22719,0.20051 -2.6354695,1.461019 -3.5791095,2.039669 -0.94364,0.578649 -2.18109,2.966431 -2.45412,4.09484 -0.78112,3.228417 0.24225,6.778473 2.07895,12.964067 1.8367,6.185614 4.6161895,14.057499 7.7922895,21.390942 10.18226,23.510297 19.56192,31.748267 19.81946,34.952907 0.18182,2.26233 -0.24946,1.50115 -1.99523,9.87847 -1.74543,8.3757 -2.42254,14.37045 -2.51716,21.85603 l -0.0145,-5.2e-4 c 0.0944,7.48758 0.77139,13.48233 2.51716,21.85965 1.74577,8.37731 2.17704,7.61665 1.99523,9.87898 -0.25755,3.20464 -9.63721,11.44261 -19.81946,34.95291 -3.1761,7.33344 -5.9550795,15.20532 -7.7917795,21.39094 -1.8367,6.18559 -2.86058,9.73513 -2.07946,12.96355 0.27303,1.12841 1.51048,3.51671 2.45412,4.09535 0.94364,0.57865 2.3524295,1.83916 3.5796195,2.03967 2.45439,0.40103 4.39315,-0.12436 7.95559,-0.5519 7.12488,-0.85509 16.80932,-3.49347 26.1183,-6.21616 9.30899,-2.72267 18.34102,-5.41107 26.05423,-8.39742 6.316,-2.44538 11.73476,-5.3947 14.98565,-6.08955 2.93139,-0.62656 1.94442,0.78136 13.626552,3.83129 36.62383,9.56162 63.7417,-2.33476 80.42249,-10.19783 10.38071,-4.89329 23.21509,-14.37158 33.87803,-22.96035 10.66294,-8.58878 20.39414,-16.66641 24.39903,-20.12694 1.90136,-1.65978 6.61407,-1.23337 5.91385,-4.06642 -0.70022,-2.83304 -5.48355,-0.83224 -8.53333,1.20768 -4.09651,3.53971 -13.38149,11.77217 -23.95151,20.2861 -10.57002,8.51393 -23.55677,17.77331 -33.40519,22.41569 -33.36097,15.72583 -60.91474,17.67619 -92.581432,4.38939 0,0 -12.57919,-5.54422 -18.03456,-9.19375 -5.45538,-3.64954 -11.40496,-8.69638 -16.56282,-15.62127 -5.15785,-6.92489 -10.25973,-18.94915 -12.15068,-24.52667 -3.17478,-9.36432 -4.72591,-20.28851 -4.96459,-31.31347 -0.23868,-11.02495 2.34628,-23.22719 5.53524,-32.07517 2.126,-5.89874 6.43665,-16.93437 11.5945,-23.859262 5.15786,-6.924893 11.10745,-11.971733 16.56282,-15.621269 5.45537,-3.649526 18.03455,-9.193754 18.03455,-9.193754 31.666712,-13.286797 59.220472,-11.336438 92.581442,4.389396 9.84842,4.642375 22.83517,13.901755 33.40519,22.415686 10.57002,8.513923 19.855,16.746393 23.95151,20.286103 3.04978,2.03992 7.83259,4.04021 8.53281,1.20716 0.70022,-2.83305 -4.01197,-2.40664 -5.91333,-4.06642 -4.00486,-3.46053 -13.73606,-11.53764 -24.399,-20.12642 C 203.96288,82.553109 191.1285,73.07482 180.74779,68.181525 164.067,60.318463 136.94913,48.422077 100.3253,57.983698 c -11.682132,3.049926 -10.695162,4.457333 -13.626552,3.830773 -3.25089,-0.694849 -8.66965,-3.643656 -14.98565,-6.089034 -7.7132,-2.986347 -16.74525,-5.674753 -26.05423,-8.39742 -9.30898,-2.722687 -18.99342,-5.361069 -26.1183,-6.216158 -2.67183,-0.320655 -4.43066,-0.696397 -6.17843,-0.695048 z m 0.98598,4.151685 c 1.14577,0.05837 2.55843,0.279478 4.25142,0.482658 6.77198,0.812739 17.03355,3.513687 25.72712,5.863724 9.25617,2.502128 19.11208,5.644417 26.72446,8.591724 4.67621,1.810488 8.41321,2.918213 8.5168,4.644161 0.0493,0.821559 -0.7837,2.146328 -1.19838,2.335258 -10.11775,4.609805 -20.7516,11.894679 -28.15952,21.37854 -9.77519,12.514519 -10.6372,21.058519 -13.14339,21.072619 -2.73344,0.0153 -4.70601,-5.08321 -8.35659,-10.19421 -4.38705,-6.567693 -14.96298,-31.743972 -16.7349,-37.711396 -1.26439,-4.496446 -2.7977395,-11.304497 -2.7186895,-12.657626 0.10507,-1.798598 1.6706795,-2.755959 2.4432595,-3.310909 0.62417,-0.448349 1.50264,-0.552911 2.64841,-0.494543 z m 22.70404,141.971694 c 2.5062,0.0141 3.36871,8.55809 13.1439,21.07262 7.40793,9.48386 18.04125,16.76873 28.15901,21.37854 0.41467,0.18893 1.24769,1.5137 1.19838,2.33526 -0.10359,1.72594 -3.84059,2.83315 -8.5168,4.64364 -7.61238,2.94731 -17.46778,6.09011 -26.72395,8.59224 -8.69357,2.35004 -18.95513,5.05047 -25.72711,5.86321 -3.38599,0.40636 -5.65201,0.88533 -6.90035,-0.0114 -0.77258,-0.55495 -2.3376695,-1.51231 -2.4427495,-3.31091 -0.079,-1.35313 1.4537895,-8.1617 2.7181795,-12.65814 1.77192,-5.96743 12.34785,-31.14319 16.7349,-37.71088 3.65058,-5.111 5.62315,-10.20955 8.35659,-10.19421 z"
       sodipodi:nodetypes="ssssssssccsssssssssssssscscsscssszssscsscscssssscssscssscscccssssssssssssccs" />
  </g>
</svg>
